# xmcd
#
# Track frame offsets: 
#        150
#        20577
#        42815
#        63162
#        87395
#        103390
#        123402
#        141037
#        160255
#        182115
#        197797
#        217832
#        239145
#        261335
#        281497
#        301085
#        317125
#
# Disc length: 4515 seconds
#
# Revision: 2
# Processed by: cddbd v1.5.2PL0 Copyright (c) Steve Scherf et al.
# Submitted via: ExactAudioCopy v0.95b4
#
DISCID=f911a111
DTITLE=Various Artist - Gold Ballads [CD 2)
DYEAR=1994
DGENRE=Ballad
TTITLE0=Aerosmith - Cryin'
TTITLE1=R.E.M - Everybody Hurts
TTITLE2=Guns N' Roses - Don't Cry
TTITLE3=Meat Loaf - I'do Anything For Love (But I Won't Do That)
TTITLE4=Richard Marx - Now and Forever
TTITLE5=Roxette - Crash Boom! Bang!
TTITLE6=Pretenders - I'll Stand By You
TTITLE7=Bruce Springsteen - Human Touch
TTITLE8=ZZ Top - Rough Boy
TTITLE9=MR Big - Wild World
TTITLE10=Bonnie Tyler - Total Eclipse Of The Heart
TTITLE11=Michael Bolton - Soul Of My Soul
TTITLE12=Bruce Hornsby and The Range - The Way It Is
TTITLE13=Bonfire - Give It A Try
TTITLE14=John Michael Montgomery - I Swear
TTITLE15=The Heights - How Do You Talk To Angel
TTITLE16=Eagles - I Can't Tell You Why
EXTD=
EXTT0=
EXTT1=
EXTT2=
EXTT3=
EXTT4=
EXTT5=
EXTT6=
EXTT7=
EXTT8=
EXTT9=
EXTT10=
EXTT11=
EXTT12=
EXTT13=
EXTT14=
EXTT15=
EXTT16=
PLAYORDER=
